<svg xmlns="http://www.w3.org/2000/svg" xmlns:xlink="http://www.w3.org/1999/xlink" width="630" height="180" viewBox="0 0 630 180">
  <defs>
    <style>
      .cls-1 {
        clip-path: url(#clip-logo-animation);
      }

      .cls-2 {
        fill: #fff;
      }

      .cls-3 {
        fill: none;
        stroke: rgba(0,0,0,0);
        stroke-linecap: round;
        stroke-width: 5px;
      }

      .cls-4 {
        fill: rgba(0,0,0,0);
      }
    </style>
    <clipPath id="clip-logo-animation">
      <rect width="630" height="180"/>
    </clipPath>
  </defs>
  <g id="logo-animation" class="cls-1">
    <rect class="cls-4" width="630" height="180"/>
    <path id="path9" class="cls-2" d="M26.338,152.256a31.764,31.764,0,0,1-3.183-.156,19.812,19.812,0,0,1-8.394-2.5,10.118,10.118,0,0,1-4.295-5.039c-1.172-3.052-.9-6.9.781-11.134a30.455,30.455,0,0,1,5.382-8.752,26.558,26.558,0,0,1,10.232-7.154,16.322,16.322,0,0,1,9.354-.866c2.836.694,4.806,2.4,5.406,4.681a6.78,6.78,0,0,1-.485,4.47,14.457,14.457,0,0,1-3.43,4.549,27.719,27.719,0,0,1-8.285,5.3,36.089,36.089,0,0,1-8.182,2.3,40.662,40.662,0,0,1-7.762.517,9.1,9.1,0,0,0,.314,4.807c1.139,2.965,4.41,4.739,9.722,5.274,5.776.582,12.606-.667,20.3-3.711a113.626,113.626,0,0,0,20.261-10.859,183.555,183.555,0,0,0,21.554-16.676,1.78,1.78,0,1,1,2.426,2.606,187.64,187.64,0,0,1-22.023,17.045,117.154,117.154,0,0,1-20.909,11.2C38.233,150.883,31.931,152.256,26.338,152.256ZM14.48,134.933a37.954,37.954,0,0,0,6.283-.5,32.44,32.44,0,0,0,7.331-2.079,24.153,24.153,0,0,0,7.175-4.592c3.156-2.962,3.085-4.846,2.908-5.519-.257-.978-1.281-1.753-2.808-2.127a12.461,12.461,0,0,0-7.267.745,23,23,0,0,0-8.836,6.209,27.045,27.045,0,0,0-4.71,7.675Z" transform="translate(17.36 6.765)"/>
    <path id="path10" class="cls-2" d="M443.211,152.256a31.764,31.764,0,0,1-3.183-.156,19.811,19.811,0,0,1-8.394-2.5,10.118,10.118,0,0,1-4.295-5.039c-1.172-3.052-.9-6.9.781-11.134a30.456,30.456,0,0,1,5.382-8.752,26.561,26.561,0,0,1,10.233-7.154,16.321,16.321,0,0,1,9.354-.866c2.836.694,4.806,2.4,5.405,4.681a6.78,6.78,0,0,1-.485,4.47,14.458,14.458,0,0,1-3.43,4.549,27.719,27.719,0,0,1-8.285,5.3,36.087,36.087,0,0,1-8.182,2.3,40.66,40.66,0,0,1-7.762.517,9.1,9.1,0,0,0,.314,4.807c1.139,2.965,4.41,4.739,9.722,5.274,5.776.582,12.606-.667,20.3-3.711a113.628,113.628,0,0,0,20.262-10.859A183.566,183.566,0,0,0,502.5,117.312a1.78,1.78,0,0,1,2.426,2.606A187.646,187.646,0,0,1,482.9,136.963a117.155,117.155,0,0,1-20.909,11.2C455.106,150.883,448.8,152.256,443.211,152.256Zm-11.858-17.323a37.958,37.958,0,0,0,6.284-.5,32.439,32.439,0,0,0,7.33-2.079,24.154,24.154,0,0,0,7.175-4.592c3.156-2.962,3.085-4.846,2.909-5.519-.257-.978-1.28-1.753-2.808-2.127a12.46,12.46,0,0,0-7.267.745,23,23,0,0,0-8.837,6.209,27.045,27.045,0,0,0-4.71,7.675Z" transform="translate(17.36 6.765)"/>
    <path id="path11" class="cls-2" d="M71.884,152.045a1.781,1.781,0,0,1-1.608-2.541l14.956-31.65a1.78,1.78,0,0,1,3.219,1.521L82.8,131.337a75.8,75.8,0,0,1,11.436-11.9,27.426,27.426,0,0,1,6.182-3.84,12.086,12.086,0,0,1,6.357-1.049A7.171,7.171,0,0,1,112.96,120c.785,2.515.849,5.605.917,8.877.084,4.046.17,8.23,1.619,11.448,1.558,3.459,4.528,5.274,9.347,5.71a26.591,26.591,0,0,0,9.684-1.411,67.28,67.28,0,0,0,12.569-5.5,98.606,98.606,0,0,0,26.171-21.293,1.78,1.78,0,1,1,2.7,2.326,102.256,102.256,0,0,1-27.141,22.081,69.873,69.873,0,0,1-13.253,5.786,29.635,29.635,0,0,1-11.046,1.552,16.71,16.71,0,0,1-7.933-2.55,12.287,12.287,0,0,1-4.34-5.244c-1.747-3.88-1.845-8.638-1.932-12.836-.149-7.2-.575-10.4-4.025-10.871a8.619,8.619,0,0,0-4.478.8,23.892,23.892,0,0,0-5.352,3.342,72.606,72.606,0,0,0-10.974,11.455,169.105,169.105,0,0,0-12.068,17.491A1.78,1.78,0,0,1,71.884,152.045Z" transform="translate(17.36 6.765)"/>
    <path id="path12" class="cls-2" d="M307.739,154.1a13.775,13.775,0,0,1-7.692-2.024c-1.856-1.215-3.055-3.313-3.566-6.233a27.408,27.408,0,0,1,0-7.917,58.693,58.693,0,0,1,1.726-8.405c1.441-5.2,3.49-10.213,4.983-12.2a1.78,1.78,0,1,1,2.845,2.14c-1.033,1.373-2.925,5.7-4.4,11.009-1.672,6.032-2.258,11.273-1.649,14.757.334,1.912,1.01,3.214,2.009,3.868,2.642,1.73,6.887,1.9,12.275.486a55.522,55.522,0,0,0,9.168-3.411A101.112,101.112,0,0,0,334,140.395a177.83,177.83,0,0,0,23.719-17.95q4.317-3.82,8.545-7.948.249-.577.508-1.16a134.3,134.3,0,0,1,8.3-15.717A76.278,76.278,0,0,1,383.1,86.549a31.519,31.519,0,0,1,5.308-4.826,6.61,6.61,0,0,1,2.12-.986,2.717,2.717,0,0,1,2.5.552c.848.753,1.116,1.957.8,3.578a17.072,17.072,0,0,1-1.458,4,52.727,52.727,0,0,1-7.182,10.581c-5.132,6.016-10.461,11.739-15.923,17.1a76.686,76.686,0,0,0-4.648,14.253c-1.078,5.248-1.051,9.435.079,12.444,1.243,3.308,3.842,5.13,7.947,5.568,5.363.572,12.059-.5,19.9-3.175a136.81,136.81,0,0,0,21.152-9.618,226.17,226.17,0,0,0,23.461-14.885,1.78,1.78,0,0,1,2.129,2.854,229.952,229.952,0,0,1-23.838,15.131A140.475,140.475,0,0,1,393.712,149c-8.345,2.853-15.562,3.981-21.45,3.353a14.009,14.009,0,0,1-6.971-2.515,11.566,11.566,0,0,1-3.932-5.341c-1.37-3.647-1.448-8.5-.233-14.412a67.282,67.282,0,0,1,2.159-7.861q-1.6,1.466-3.2,2.889a181.377,181.377,0,0,1-24.2,18.309c-7.733,4.8-14.7,8.028-20.7,9.6A29.6,29.6,0,0,1,307.739,154.1Zm82.432-69.271a29.328,29.328,0,0,0-4.456,4.141,72.782,72.782,0,0,0-7.61,10.525c-1.407,2.28-2.768,4.653-4.052,7.061q4.287-4.569,8.423-9.417a51.946,51.946,0,0,0,6.228-8.921A19.181,19.181,0,0,0,390.172,84.824Z" transform="translate(17.36 6.765)"/>
    <path id="path13" class="cls-2" d="M534.206,152.6a24,24,0,0,1-5.813-.675,16.135,16.135,0,0,1-6.881-3.475,12.472,12.472,0,0,1-3.75-5.871,18.235,18.235,0,0,1-.093-8.672,38.357,38.357,0,0,1,2.734-8.127l.105-.231c-5.5,3.739-10.173,5.247-13.888,4.481a6.348,6.348,0,0,1-4.421-3.078,9.424,9.424,0,0,1-.847-5.928,16.221,16.221,0,0,1,.686-3,1.78,1.78,0,0,1,3.357,1.186c-.371,1.065-1.107,4.209-.092,6a2.79,2.79,0,0,0,2.036,1.335,9.809,9.809,0,0,0,5.4-.788,30.121,30.121,0,0,0,6.017-3.32,55.033,55.033,0,0,0,6.676-5.469,1.78,1.78,0,0,1,2.706,2.293,54.507,54.507,0,0,0-4.515,8.045c-1.828,4.044-3.735,9.8-2.439,14.284a8.8,8.8,0,0,0,2.688,4.192,12.625,12.625,0,0,0,5.385,2.688,23.686,23.686,0,0,0,9.157.245,45.959,45.959,0,0,0,12.213-3.805,83.348,83.348,0,0,0,14.832-8.948,141.6,141.6,0,0,0,17.017-15.1,1.78,1.78,0,0,1,2.555,2.48,145.151,145.151,0,0,1-17.451,15.483,86.894,86.894,0,0,1-15.475,9.327,49.491,49.491,0,0,1-13.171,4.088A32.4,32.4,0,0,1,534.206,152.6Z" transform="translate(17.36 6.765)"/>
    <path id="path14" class="cls-2" d="M304.349,110.131a2.079,2.079,0,0,1-1.554-.648,2.123,2.123,0,0,1-.45-2.061,4.646,4.646,0,0,1,.44-1.031c.31-.564.745-1.2,1.2-1.879a15.326,15.326,0,0,0,1.476-2.438,1.78,1.78,0,1,1,3.365,1.162,9.157,9.157,0,0,1-.881,1.737,1.78,1.78,0,0,1,.795,3.315,22.846,22.846,0,0,1-2.955,1.519,4.468,4.468,0,0,1-1.166.31A2.687,2.687,0,0,1,304.349,110.131Z" transform="translate(17.36 6.765)"/>
    <path id="path15" class="cls-2" d="M203.205,158.353a32.056,32.056,0,0,1-12.833-2.859,1.78,1.78,0,0,1,1.421-3.265,27.981,27.981,0,0,0,12.679,2.53,24.655,24.655,0,0,0,11.1-3.43c7.13-4.138,13.848-12.038,19.968-23.479,5.218-9.755,10.017-22.111,14.264-36.724a386.927,386.927,0,0,0,8.9-38.4c2.441-13.407,3.706-23.668,4.242-28.591a1.78,1.78,0,1,1,3.539.386c-.542,4.97-1.818,15.327-4.279,28.843a390.49,390.49,0,0,1-8.985,38.758c-4.316,14.85-9.209,27.437-14.544,37.41a86.97,86.97,0,0,1-9.7,14.714,44.768,44.768,0,0,1-11.623,10.165A27.853,27.853,0,0,1,203.205,158.353Z" transform="translate(17.36 6.765)"/>
    <path id="path16" class="cls-2" d="M175.344,50.56a1.781,1.781,0,0,1-1.656-1.126c-1.169-2.956-.876-7.618.785-12.471a34.662,34.662,0,0,1,3.779-7.7,37.209,37.209,0,0,1,6.442-7.465,41.178,41.178,0,0,1,14.144-8.129,58.558,58.558,0,0,1,20.722-2.823c17.939.534,39.541,7.533,64.207,20.8a38.019,38.019,0,0,0,12.962,4.415,25.879,25.879,0,0,0,9.473-.437,19.108,19.108,0,0,0,7.738-3.62,1.78,1.78,0,0,1,2.383,2.645,22.592,22.592,0,0,1-9.286,4.436,29.422,29.422,0,0,1-10.772.506,41.547,41.547,0,0,1-14.185-4.81c-24.174-13.006-45.245-19.863-62.626-20.38a55.029,55.029,0,0,0-19.463,2.633,37.639,37.639,0,0,0-12.931,7.421,33.649,33.649,0,0,0-5.826,6.75,31.1,31.1,0,0,0-3.392,6.9c-1.644,4.8-1.481,8.393-.843,10.008a1.781,1.781,0,0,1-1.655,2.435Z" transform="translate(17.36 6.765)"/>
    <path id="line1" class="cls-2" d="M56.677,1.78H0A1.78,1.78,0,0,1-1.78,0,1.78,1.78,0,0,1,0-1.78H56.677A1.78,1.78,0,0,1,58.457,0,1.78,1.78,0,0,1,56.677,1.78Z" transform="translate(243.392 97.33)"/>
  </g>
</svg>
