<svg xmlns="http://www.w3.org/2000/svg" width="576.528" height="147.766" viewBox="0 0 576.528 147.766">
  <g id="グループ_2" data-name="グループ 2" transform="translate(-9.74 -10.622)">
    <path id="パス_9" data-name="パス 9" d="M12.561,136.642s14.4,1.355,23.926-7.586c11.033-10.357-6.11-16.888-18.54-3.186-5.275,5.815-13.56,22.55,5.386,24.459,26.574,2.676,63.508-31.714,63.508-31.714" fill="none" stroke="#1a1311" stroke-linecap="round" stroke-linejoin="round" stroke-width="3.56"/>
    <path id="パス_10" data-name="パス 10" d="M429.435,136.642s14.4,1.355,23.925-7.586c11.033-10.357-6.109-16.888-18.54-3.186-5.275,5.815-13.56,22.55,5.386,24.459,26.574,2.676,63.509-31.714,63.509-31.714" fill="none" stroke="#1a1311" stroke-linecap="round" stroke-linejoin="round" stroke-width="3.56"/>
    <path id="パス_11" data-name="パス 11" d="M86.841,118.615l-14.956,31.65s20.956-35.813,34.648-33.948c12.339,1.681-3.324,29.549,18.15,31.491,11.366,1.028,34.059-10.417,49.932-28.809" fill="none" stroke="#1a1311" stroke-linecap="round" stroke-linejoin="round" stroke-width="3.56"/>
    <path id="パス_12" data-name="パス 12" d="M304.612,118.388c-3.164,4.207-10.9,27.4-3.589,32.194,12.692,8.311,50.154-14.012,82.808-52.293,10.322-12.1,11.7-22.569.577-10.532s-36.63,60.191-11.957,62.825,65.766-28.021,65.766-28.021" fill="none" stroke="#1a1311" stroke-linecap="round" stroke-linejoin="round" stroke-width="3.56"/>
    <path id="パス_13" data-name="パス 13" d="M503.715,118.615s-2.965,8.386,3.264,9.67c7.934,1.635,19.7-10.056,19.7-10.056s-10.021,14.141-7.212,23.853c3.576,12.363,29.157,16.194,64.279-19.984" fill="none" stroke="#1a1311" stroke-linecap="round" stroke-linejoin="round" stroke-width="3.56"/>
    <path id="パス_14" data-name="パス 14" d="M307.148,102.655c-.88,2.549-6.947,8.555.7,4.1" fill="none" stroke="#1a1311" stroke-linecap="round" stroke-linejoin="round" stroke-width="3.56"/>
    <path id="パス_15" data-name="パス 15" d="M264.72,24.327c-3.578,32.837-22.95,151.594-73.637,129.535" fill="none" stroke="#1a1311" stroke-linecap="round" stroke-linejoin="round" stroke-width="3.56"/>
    <path id="パス_16" data-name="パス 16" d="M175.344,48.779c-4.459-11.273,15.493-65.1,107.579-15.558,20.245,10.892,32.208.113,32.208.113" fill="none" stroke="#1a1311" stroke-linecap="round" stroke-linejoin="round" stroke-width="3.56"/>
    <line id="線_2" data-name="線 2" x2="56.677" transform="translate(226.032 90.565)" fill="none" stroke="#1a1311" stroke-linecap="round" stroke-linejoin="round" stroke-width="3.56"/>
  </g>
</svg>
